Coordinates
version=1
nRows=16
nColumns=40
inDegrees=yes

Units are S.I. units (second, meters, Newtons, ...)
Angles are in degrees.

endheader
time	pelvis_tilt	pelvis_list	pelvis_rotation	pelvis_tx	pelvis_ty	pelvis_tz	hip_flexion_r	hip_adduction_r	hip_rotation_r	knee_angle_r	knee_angle_r_beta	ankle_angle_r	subtalar_angle_r	mtp_angle_r	hip_flexion_l	hip_adduction_l	hip_rotation_l	knee_angle_l	knee_angle_l_beta	ankle_angle_l	subtalar_angle_l	mtp_angle_l	lumbar_extension	lumbar_bending	lumbar_rotation	arm_flex_r	arm_add_r	arm_rot_r	elbow_flex_r	pro_sup_r	wrist_flex_r	wrist_dev_r	arm_flex_l	arm_add_l	arm_rot_l	elbow_flex_l	pro_sup_l	wrist_flex_l	wrist_dev_l
     13.75314286	     -5.53191800	     -5.94878541	      7.09352668	      0.74738553	      0.91504153	      0.46562943	     -0.23964801	      5.08509910	    -17.23053871	     10.88758447	     10.88758447	     17.93143731	      0.51419366	     -2.30592482	     32.00204976	     -5.71277377	     -1.65080500	     19.40577241	     19.40577241	      2.06053561	     -8.72213063	      2.01373908	     -8.22264744	      5.18604054	      2.35921928	     44.51699722	    -15.51230601	     -6.74664973	     84.58441505	     44.84573880	      0.00000000	      0.00000000	    -10.47690843	     -6.62204226	      3.61923641	     28.40209164	     44.62867847	      0.00000000	      0.00000000
     13.76628571	     -5.53115217	     -5.97631783	      6.98660391	      0.74918398	      0.91418281	      0.46376383	     -0.74937083	      4.98936507	    -17.13370485	     11.07561972	     11.07561972	     18.21128367	      0.62084259	     -2.27204759	     31.95642806	     -5.74810823	     -1.64081445	     20.43215132	     20.43215132	      1.56937116	     -9.13181256	      1.87488156	     -8.05012573	      5.07870385	      2.41972188	     44.03913432	    -15.44161891	     -6.87907308	     84.35676389	     44.85925078	      0.00000000	      0.00000000	    -10.41395535	     -6.72208172	      3.61072325	     28.39992883	     44.63762422	      0.00000000	      0.00000000
     13.77942857	     -5.49799915	     -5.91297209	      6.88222889	      0.75102593	      0.91376100	      0.46167870	     -1.26945977	      4.77262689	    -16.98812317	     11.32243254	     11.32243254	     18.38970531	      0.65522507	     -2.27501462	     31.72575295	     -5.67929517	     -1.66630172	     21.21058296	     21.21058296	      1.27741742	     -9.40411377	      1.81549882	     -7.94233961	      4.88667477	      2.41595742	     43.35977980	    -15.26369335	     -6.90334768	     84.10751723	     44.86675566	      0.00000000	      0.00000000	    -10.26296657	     -6.82107241	      3.59186237	     28.42908354	     44.64569940	      0.00000000	      0.00000000
     13.79257143	     -5.54874698	     -5.91132500	      6.79536563	      0.75267545	      0.91328214	      0.45937416	     -1.43533312	      4.50890042	    -16.91974617	     12.05263231	     12.05263231	     18.69166154	      0.63890879	     -2.15386732	     31.76845567	     -5.59795035	     -1.44641402	     22.26738399	     22.26738399	      1.28564108	     -9.93400977	      1.58816092	     -7.72974549	      4.81445477	      2.62241371	     42.60585756	    -15.23238578	     -7.48131994	     83.53193604	     44.90723591	      0.00000000	      0.00000000	     -9.95776049	     -6.94397811	      3.51974950	     28.44951692	     44.67313530	      0.00000000	      0.00000000
     13.80571429	     -5.55283386	     -5.80111999	      6.71606435	      0.75425548	      0.91332633	      0.45688699	     -1.57639764	      4.09861560	    -16.80028098	     12.92565352	     12.92565352	     18.89483126	      0.48608073	     -2.02835775	     31.57192488	     -5.39163369	     -1.28051960	     23.00728737	     23.00728737	      1.48972329	    -10.33777590	      1.53794918	     -7.62121239	      4.63762352	      2.76445076	     41.65300911	    -15.05887628	     -8.02891196	     82.91206276	     44.94755974	      0.00000000	      0.00000000	     -9.52969885	     -7.05649460	      3.41889740	     28.45262188	     44.70862540	      0.00000000	      0.00000000
     13.81885714	     -5.54403752	     -5.70152975	      6.63494217	      0.75576370	      0.91371156	      0.45429746	     -1.60985347	      3.66618777	    -16.66901692	     13.99696637	     13.99696637	     18.95924109	      0.20930445	     -1.98481975	     31.30472152	     -5.18438426	     -1.10846402	     23.64445095	     23.64445095	      1.96374423	    -10.72653853	      1.57429326	     -7.54069831	      4.46523185	      2.87912791	     40.57203289	    -14.88615556	     -8.53616330	     82.17328881	     44.99000258	      0.00000000	      0.00000000	     -9.01920546	     -7.17805734	      3.27268845	     28.45425241	     44.75359088	      0.00000000	      0.00000000
     13.83200000	     -5.37585990	     -5.66243230	      6.60873019	      0.75739109	      0.91466564	      0.45155333	     -1.91086231	      3.34750279	    -16.59824378	     14.83694850	     14.83694850	     18.76141167	     -0.00701042	     -2.02929480	     30.78412949	     -5.04203968	     -0.93232006	     24.13037837	     24.13037837	      2.54456735	    -10.98005115	      1.39664173	     -7.65078146	      4.43374070	      2.77282799	     39.34090507	    -14.60427801	     -8.54645034	     81.61083061	     45.00491997	      0.00000000	      0.00000000	     -8.55324647	     -7.31854418	      3.20491438	     28.56685569	     44.77523661	      0.00000000	      0.00000000
     13.84514286	     -5.49441740	     -5.50989248	      6.48791621	      0.75852877	      0.91533267	      0.44876567	     -1.32037294	      2.69932280	    -16.38412628	     16.77686117	     16.77686117	     18.62716926	     -0.76691804	     -2.45331144	     30.51691955	     -4.76388404	     -0.88641821	     24.53635824	     24.53635824	      3.32811950	    -11.23772792	      1.54769731	     -7.42753093	      4.25130934	      3.12054731	     38.18045553	    -14.59081971	     -9.10824426	     80.28163273	     45.06776172	      0.00000000	      0.00000000	     -7.86045074	     -7.43911459	      2.94897771	     28.65963700	     44.84016223	      0.00000000	      0.00000000
     13.85828571	     -5.49168593	     -5.41594335	      6.35644731	      0.75964984	      0.91644556	      0.44604302	     -0.82133020	      2.13670388	    -16.12040902	     18.71670069	     18.71670069	     18.21316690	     -1.50281825	     -2.98001813	     30.04237860	     -4.60606553	     -0.96315841	     24.78938252	     24.78938252	      4.03862830	    -11.26299059	      1.62777686	     -7.42827503	      4.12743401	      3.23042714	     36.91497623	    -14.47252095	     -9.39548007	     78.98444064	     45.11862394	      0.00000000	      0.00000000	     -7.13915377	     -7.56660616	      2.70393202	     28.82202301	     44.90087837	      0.00000000	      0.00000000
     13.87142857	     -5.48786041	     -5.40654451	      6.22591468	      0.76073225	      0.91768208	      0.44338289	     -0.26575103	      1.71237131	    -15.74170057	     20.63840763	     20.63840763	     17.14570118	     -2.82340980	     -4.69343939	     29.55611705	     -4.56515183	     -1.14959959	     25.03558252	     25.03558252	      5.15403563	    -11.00675008	      2.30505436	     -7.32843288	      4.11015240	      3.13212560	     36.00338790	    -13.92283972	     -9.88058226	     76.55387146	     45.22244474	      0.00000000	      0.00000000	     -6.42811410	     -7.59614288	      1.83504772	     28.83025806	     45.08412984	      0.00000000	      0.00000000
     13.88457143	     -5.44559968	     -5.28794683	      6.04567604	      0.76172916	      0.91902016	      0.44067148	      0.55852038	      1.02030988	    -15.58224640	     23.22151418	     23.22151418	     16.50392128	     -3.68144806	     -5.34142674	     28.83845883	     -4.45867862	     -1.55444727	     24.95219535	     24.95219535	      5.84004037	    -10.69625771	      2.04462530	     -7.34577925	      4.00711997	      3.22112177	     34.55449879	    -13.85383390	     -9.68123683	     75.44054571	     45.24800711	      0.00000000	      0.00000000	     -5.69548196	     -7.79506175	      1.61271497	     29.21837697	     45.13522782	      0.00000000	      0.00000000
     13.89771429	     -5.43648837	     -5.21808249	      5.85469509	      0.76255027	      0.92035078	      0.43812468	      1.58456468	      0.38283916	    -15.33730097	     26.01822890	     26.01822890	     15.58133362	     -4.78167282	     -5.98686687	     28.15450950	     -4.42111726	     -1.99720937	     24.83179307	     24.83179307	      6.44538999	    -10.25121881	      1.75630323	     -7.37792530	      3.94758682	      3.34719032	     33.12749049	    -13.77513234	     -9.47831600	     74.04362380	     45.28245437	      0.00000000	      0.00000000	     -4.91532094	     -7.98320051	      1.40757237	     29.64603244	     45.18280050	      0.00000000	      0.00000000
     13.91085714	     -5.54603081	     -5.30980479	      5.59883529	      0.76316006	      0.92140824	      0.43588950	      2.93333242	      0.01395601	    -14.68218870	     28.94975038	     28.94975038	     14.04100916	     -6.81212675	     -7.42406277	     27.65632014	     -4.63406118	     -2.63175459	     24.76934981	     24.76934981	      7.14056955	     -9.34677702	      1.29898213	     -7.17584771	      4.03414332	      3.42153111	     32.07122352	    -13.63200798	     -9.03217429	     71.16699269	     45.36063074	      0.00000000	      0.00000000	     -4.24041534	     -8.17174140	      0.89357286	     30.24917312	     45.28199197	      0.00000000	      0.00000000
     13.92400000	     -5.50321378	     -5.14774867	      5.32922173	      0.76368641	      0.92264397	      0.43355643	      4.31324598	     -0.78070197	    -14.42081918	     32.33570277	     32.33570277	     12.88115172	     -8.13059467	     -8.03013937	     26.80863324	     -4.56316210	     -3.36511408	     24.42113473	     24.42113473	      7.62055540	     -8.75584436	      1.03212663	     -7.24494222	      3.89174290	      3.33438453	     30.72997292	    -13.36535663	     -8.66355306	     69.71831876	     45.39042125	      0.00000000	      0.00000000	     -3.43775160	     -8.44061412	      0.67425947	     30.72177547	     45.33016774	      0.00000000	      0.00000000
     13.93714286	     -5.49770139	     -5.02271083	      5.05199044	      0.76401860	      0.92368769	      0.43134309	      5.88061186	     -1.50214715	    -14.04179061	     35.84220427	     35.84220427	     11.59034715	     -9.72687666	     -8.35697198	     26.05762340	     -4.53117349	     -4.07492386	     24.14511816	     24.14511816	      8.10181634	     -8.08251265	      0.68352441	     -7.25577175	      3.79003748	      3.35280850	     29.31619325	    -13.19646004	     -8.25252224	     68.02013357	     45.42656966	      0.00000000	      0.00000000	     -2.52849984	     -8.72238600	      0.47459572	     31.26590152	     45.37573198	      0.00000000	      0.00000000
     13.95028571	     -5.53917276	     -4.92811255	      4.72029878	      0.76415220	      0.92456221	      0.42936509	      7.63284077	     -2.13244310	    -13.52139649	     39.40666431	     39.40666431	     10.22561723	    -11.57565858	     -8.37520166	     25.35641175	     -4.55233416	     -4.84723240	     23.84161610	     23.84161610	      8.55829432	     -7.34412261	      0.29503581	     -7.23492642	      3.69468385	      3.39263902	     27.91605889	    -13.06613072	     -7.75627123	     66.03594568	     45.46911188	      0.00000000	      0.00000000	     -1.62218367	     -9.03066438	      0.27607958	     31.83652095	     45.42042906	      0.00000000	      0.00000000
